<svg width="120" height="120" viewBox="0 0 120 120" fill="none" xmlns="http://www.w3.org/2000/svg">
<path d="M54.726 20.2325H72.9272L66.1499 24.6649L63.9914 26.3245C59.2528 29.9678 54.9264 34.1177 51.089 38.7004C47.2524 43.2822 43.9457 48.2828 41.2319 53.6071L36.5429 62.8066C36.4764 62.9372 36.2791 62.8899 36.2791 62.7432V38.9517C36.2791 36.8287 36.6275 34.72 37.3107 32.7099L37.3345 32.6394C37.9658 30.7817 38.8821 29.0334 40.0507 27.4572L40.295 27.1277C41.6209 25.3392 43.2875 23.831 45.199 22.6896C47.0989 21.5552 49.2035 20.8055 51.3929 20.4833L51.4856 20.4696C52.5585 20.3118 53.6415 20.2325 54.726 20.2325Z" fill="url(#paint0_linear_2277_991)"/>
<path d="M43.5585 51.2586C41.6302 53.9644 38.2222 60.5066 36.8627 63.1612C36.7867 63.3099 36.988 63.4422 37.0944 63.3132C38.7702 61.2787 42.6668 56.6143 45.3156 53.9672C47.9394 51.3449 48.0716 51.1422 50.9545 48.7962L51.0463 48.7214C55.0172 45.4899 55.1622 45.372 59.8746 43.1327C62.332 41.9648 69.413 38.7004 69.413 38.7004L75.9195 35.908C76.9328 35.4731 77.8874 34.9125 78.7609 34.2393L79.5223 33.6523C80.4702 32.9219 81.2551 32.0013 81.8266 30.9501C82.5732 29.5766 82.9313 28.0256 82.8621 26.4639L82.7203 23.2646C82.7185 23.2243 82.7552 23.1788 82.7159 23.1876C75.8839 24.7137 69.5736 28.3759 63.6624 32.1257C63.2085 32.4135 62.7386 32.7167 62.2501 33.037C57.8011 35.9538 53.9735 39.1828 50.9545 42.1478C47.9449 45.1033 46.0183 47.8067 43.5818 51.2259L43.5585 51.2586Z" fill="url(#paint1_linear_2277_991)"/>
<path d="M45.8969 56.5796L37.5477 65.7149C37.4675 65.8027 37.577 65.9333 37.6774 65.8695L38.1392 65.5765C45.6449 60.8132 53.7537 57.0745 62.2501 54.4596L69.4977 53.0243C72.9163 52.3473 76.1516 50.9504 78.9886 48.9265C79.7927 48.3529 80.4749 47.6253 80.9957 46.786L81.6579 45.7187C83.0064 43.5455 83.7209 41.0387 83.7209 38.481V34.391C83.7209 34.3461 83.6664 34.3237 83.6348 34.3558C79.5807 38.4919 74.5058 41.4837 68.9238 43.0281L67.656 43.3789L66.0329 43.8731C62.278 45.0162 58.6887 46.645 55.356 48.7182C51.8584 50.8939 48.6758 53.5391 45.8969 56.5796Z" fill="url(#paint2_linear_2277_991)"/>
<path d="M41.0606 65.935L40.6418 66.2153C40.6132 66.2344 40.6267 66.2791 40.6612 66.2791H72.5577C74.44 66.2791 76.2853 65.7539 77.8854 64.7623C79.4058 63.8205 80.6492 62.4924 81.4889 60.9133L81.7243 60.471C82.7037 58.6295 83.185 56.5641 83.1207 54.4793L82.9679 49.5349C80.8849 52.6785 77.5997 54.8261 73.8844 55.4727L64.1418 57.1683C55.8829 58.3026 47.9901 61.3004 41.0606 65.935Z" fill="url(#paint3_linear_2277_991)"/>
<path d="M27.5432 98.5954C25.9432 98.5954 24.5199 98.2605 23.2734 97.5907C22.0455 96.921 21.0688 96.0094 20.3432 94.8559C19.6362 93.6838 19.2827 92.3536 19.2827 90.8652C19.2827 89.3582 19.6362 88.028 20.3432 86.8745C21.0688 85.7024 22.0455 84.7908 23.2734 84.1396C24.5199 83.4698 25.9432 83.1349 27.5432 83.1349C29.1246 83.1349 30.5386 83.4698 31.7851 84.1396C33.0315 84.7908 34.0083 85.693 34.7153 86.8466C35.4223 88.0001 35.7758 89.3396 35.7758 90.8652C35.7758 92.3536 35.4223 93.6838 34.7153 94.8559C34.0083 96.0094 33.0315 96.921 31.7851 97.5907C30.5386 98.2605 29.1246 98.5954 27.5432 98.5954ZM27.5432 95.0233C28.2688 95.0233 28.92 94.8559 29.4967 94.521C30.0734 94.1861 30.5293 93.7117 30.8641 93.0977C31.199 92.4652 31.3665 91.7209 31.3665 90.8652C31.3665 89.9907 31.199 89.2466 30.8641 88.6326C30.5293 88.0187 30.0734 87.5442 29.4967 87.2093C28.92 86.8745 28.2688 86.707 27.5432 86.707C26.8176 86.707 26.1664 86.8745 25.5897 87.2093C25.013 87.5442 24.5478 88.0187 24.1944 88.6326C23.8595 89.2466 23.692 89.9907 23.692 90.8652C23.692 91.7209 23.8595 92.4652 24.1944 93.0977C24.5478 93.7117 25.013 94.1861 25.5897 94.521C26.1664 94.8559 26.8176 95.0233 27.5432 95.0233ZM42.0346 98.3721V77.6652H46.3881V98.3721H42.0346ZM62.9866 98.3721V95.4419L62.7075 94.8001V89.5535C62.7075 88.6233 62.4191 87.8977 61.8424 87.3768C61.2843 86.8559 60.4192 86.5954 59.2471 86.5954C58.4471 86.5954 57.6564 86.7256 56.875 86.9861C56.1121 87.2279 55.4611 87.5628 54.9215 87.9907L53.3587 84.9489C54.1773 84.3722 55.1633 83.9257 56.3168 83.6093C57.4704 83.293 58.6425 83.1349 59.8331 83.1349C62.1215 83.1349 63.8982 83.6745 65.1634 84.7535C66.4285 85.8326 67.061 87.5163 67.061 89.8047V98.3721H62.9866ZM58.4099 98.5954C57.2378 98.5954 56.2331 98.4 55.3959 98.0093C54.5587 97.6001 53.9168 97.0512 53.4703 96.3628C53.0238 95.6745 52.8006 94.9023 52.8006 94.0466C52.8006 93.1535 53.0145 92.3721 53.4424 91.7024C53.8889 91.0326 54.5866 90.5117 55.5354 90.1396C56.4843 89.7489 57.7215 89.5535 59.2471 89.5535H63.2378V92.0931H59.7215C58.6983 92.0931 57.9913 92.2605 57.6006 92.5954C57.2284 92.9303 57.0424 93.3489 57.0424 93.8512C57.0424 94.4094 57.2563 94.8559 57.6843 95.1907C58.1308 95.5071 58.7354 95.6652 59.4982 95.6652C60.2238 95.6652 60.875 95.4977 61.4517 95.1628C62.0284 94.8094 62.447 94.2977 62.7075 93.628L63.3773 95.6373C63.061 96.6047 62.4843 97.3396 61.6471 97.8419C60.8099 98.3442 59.7308 98.5954 58.4099 98.5954ZM93.5778 83.1349C94.7686 83.1349 95.8197 83.3767 96.7313 83.8605C97.6616 84.3256 98.3872 85.0512 98.9081 86.0373C99.4476 87.0047 99.7174 88.2513 99.7174 89.7768V98.3721H95.3639V90.4466C95.3639 89.2372 95.1127 88.3442 94.6104 87.7675C94.108 87.1908 93.4012 86.9024 92.4894 86.9024C91.8569 86.9024 91.2894 87.0513 90.7871 87.3489C90.2848 87.628 89.8941 88.0559 89.615 88.6326C89.336 89.2093 89.1964 89.9442 89.1964 90.8373V98.3721H84.8429V90.4466C84.8429 89.2372 84.5918 88.3442 84.0894 87.7675C83.6058 87.1908 82.9081 86.9024 81.9964 86.9024C81.3639 86.9024 80.7964 87.0513 80.2941 87.3489C79.7918 87.628 79.4011 88.0559 79.122 88.6326C78.8429 89.2093 78.7034 89.9442 78.7034 90.8373V98.3721H74.3499V83.3582H78.508V87.4605L77.7267 86.2605C78.2477 85.2373 78.9825 84.4651 79.9313 83.9442C80.8988 83.4047 81.9964 83.1349 83.2243 83.1349C84.6011 83.1349 85.8011 83.4884 86.8243 84.1954C87.8662 84.8837 88.5546 85.9442 88.8894 87.3768L87.3546 86.9582C87.8569 85.7861 88.657 84.8558 89.7546 84.1675C90.8708 83.4792 92.1454 83.1349 93.5778 83.1349Z" fill="url(#paint4_linear_2277_991)"/>
<path d="M41.8605 74.6511H46.7442V80.9302L41.8605 78.1395V74.6511Z" fill="white"/>
<defs>
<linearGradient id="paint0_linear_2277_991" x1="60" y1="20.2325" x2="60" y2="66.279" gradientUnits="userSpaceOnUse">
<stop stop-color="#5C3A00"/>
<stop offset="0.2" stop-color="#C99700" stop-opacity="0.870588"/>
<stop offset="0.4" stop-color="#FFD75A"/>
<stop offset="0.5" stop-color="#C99700"/>
<stop offset="0.65" stop-color="#C99700"/>
<stop offset="1" stop-color="#7A4E00"/>
</linearGradient>
<linearGradient id="paint1_linear_2277_991" x1="60" y1="20.2326" x2="60" y2="66.2791" gradientUnits="userSpaceOnUse">
<stop stop-color="#5C3A00"/>
<stop offset="0.2" stop-color="#C99700" stop-opacity="0.870588"/>
<stop offset="0.4" stop-color="#FFD75A"/>
<stop offset="0.5" stop-color="#C99700"/>
<stop offset="0.65" stop-color="#C99700"/>
<stop offset="1" stop-color="#7A4E00"/>
</linearGradient>
<linearGradient id="paint2_linear_2277_991" x1="60" y1="20.2325" x2="60" y2="66.279" gradientUnits="userSpaceOnUse">
<stop stop-color="#5C3A00"/>
<stop offset="0.2" stop-color="#C99700" stop-opacity="0.870588"/>
<stop offset="0.4" stop-color="#FFD75A"/>
<stop offset="0.5" stop-color="#C99700"/>
<stop offset="0.65" stop-color="#C99700"/>
<stop offset="1" stop-color="#7A4E00"/>
</linearGradient>
<linearGradient id="paint3_linear_2277_991" x1="60" y1="20.2326" x2="60" y2="66.2791" gradientUnits="userSpaceOnUse">
<stop stop-color="#5C3A00"/>
<stop offset="0.2" stop-color="#C99700" stop-opacity="0.870588"/>
<stop offset="0.4" stop-color="#FFD75A"/>
<stop offset="0.5" stop-color="#C99700"/>
<stop offset="0.65" stop-color="#C99700"/>
<stop offset="1" stop-color="#7A4E00"/>
</linearGradient>
<linearGradient id="paint4_linear_2277_991" x1="60" y1="77.4419" x2="60" y2="99.7675" gradientUnits="userSpaceOnUse">
<stop stop-color="#5C3A00"/>
<stop offset="0.2" stop-color="#C99700" stop-opacity="0.870588"/>
<stop offset="0.4" stop-color="#FFD75A"/>
<stop offset="0.5" stop-color="#C99700"/>
<stop offset="0.65" stop-color="#C99700"/>
<stop offset="1" stop-color="#7A4E00"/>
</linearGradient>
</defs>
</svg>
