<svg width="24" height="24" viewBox="0 0 24 24" fill="none" xmlns="http://www.w3.org/2000/svg">
<path d="M12 2C9.38029 2.00705 6.86752 3.0398 5 4.877V3C5 2.73478 4.89464 2.48043 4.70711 2.29289C4.51957 2.10536 4.26522 2 4 2C3.73478 2 3.48043 2.10536 3.29289 2.29289C3.10536 2.48043 3 2.73478 3 3V7.5C3 7.76522 3.10536 8.01957 3.29289 8.20711C3.48043 8.39464 3.73478 8.5 4 8.5H8.5C8.76522 8.5 9.01957 8.39464 9.20711 8.20711C9.39464 8.01957 9.5 7.76522 9.5 7.5C9.5 7.23478 9.39464 6.98043 9.20711 6.79289C9.01957 6.60536 8.76522 6.5 8.5 6.5H6.218C7.12989 5.54129 8.26553 4.82397 9.52303 4.41243C10.7805 4.00089 12.1205 3.90799 13.4228 4.14208C14.725 4.37616 15.9488 4.92991 16.9843 5.75362C18.0197 6.57733 18.8345 7.64524 19.3554 8.86151C19.8763 10.0778 20.0871 11.4044 19.9689 12.7222C19.8506 14.04 19.4071 15.3079 18.678 16.412C17.9488 17.5161 16.957 18.4219 15.7915 19.0482C14.6259 19.6744 13.3231 20.0015 12 20C11.7348 20 11.4804 20.1054 11.2929 20.2929C11.1054 20.4804 11 20.7348 11 21C11 21.2652 11.1054 21.5196 11.2929 21.7071C11.4804 21.8946 11.7348 22 12 22C14.6522 22 17.1957 20.9464 19.0711 19.0711C20.9464 17.1957 22 14.6522 22 12C22 9.34784 20.9464 6.8043 19.0711 4.92893C17.1957 3.05357 14.6522 2 12 2Z" fill="url(#paint0_linear_2263_2041)"/>
<path d="M14 13H12C11.7348 13 11.4804 12.8946 11.2929 12.7071C11.1054 12.5196 11 12.2652 11 12V9C11 8.73478 11.1054 8.48043 11.2929 8.29289C11.4804 8.10536 11.7348 8 12 8C12.2652 8 12.5196 8.10536 12.7071 8.29289C12.8946 8.48043 13 8.73478 13 9V11H14C14.2652 11 14.5196 11.1054 14.7071 11.2929C14.8946 11.4804 15 11.7348 15 12C15 12.2652 14.8946 12.5196 14.7071 12.7071C14.5196 12.8946 14.2652 13 14 13Z" fill="url(#paint1_linear_2263_2041)"/>
<path opacity="0.5" d="M12 4C10.9172 4.00372 9.84646 4.22722 8.85259 4.65695C7.85872 5.08667 6.96242 5.71369 6.21801 6.5H8.50001C8.76523 6.5 9.01958 6.60536 9.20712 6.79289C9.39465 6.98043 9.50001 7.23478 9.50001 7.5C9.50001 7.76522 9.39465 8.01957 9.20712 8.20711C9.01958 8.39464 8.76523 8.5 8.50001 8.5H4.00001C3.75785 8.49807 3.5248 8.40746 3.34494 8.24529C3.16509 8.08313 3.05091 7.86067 3.02401 7.62C2.27507 9.14284 1.92696 10.8316 2.01259 12.5264C2.09822 14.2213 2.61476 15.8664 3.51336 17.306C4.41196 18.7456 5.66293 19.9322 7.14795 20.7535C8.63297 21.5749 10.303 22.0039 12 22C11.7348 22 11.4804 21.8946 11.2929 21.7071C11.1054 21.5196 11 21.2652 11 21C11 20.7348 11.1054 20.4804 11.2929 20.2929C11.4804 20.1054 11.7348 20 12 20C14.1217 20 16.1566 19.1571 17.6569 17.6569C19.1572 16.1566 20 14.1217 20 12C20 9.87827 19.1572 7.84344 17.6569 6.34315C16.1566 4.84285 14.1217 4 12 4ZM14 13H12C11.7348 13 11.4804 12.8946 11.2929 12.7071C11.1054 12.5196 11 12.2652 11 12V9C11 8.73478 11.1054 8.48043 11.2929 8.29289C11.4804 8.10536 11.7348 8 12 8C12.2652 8 12.5196 8.10536 12.7071 8.29289C12.8947 8.48043 13 8.73478 13 9V11H14C14.2652 11 14.5196 11.1054 14.7071 11.2929C14.8947 11.4804 15 11.7348 15 12C15 12.2652 14.8947 12.5196 14.7071 12.7071C14.5196 12.8946 14.2652 13 14 13Z" fill="url(#paint2_linear_2263_2041)"/>
<defs>
<linearGradient id="paint0_linear_2263_2041" x1="3" y1="12" x2="22" y2="12" gradientUnits="userSpaceOnUse">
<stop stop-color="#AF5400"/>
<stop offset="0.3" stop-color="#DDA337"/>
<stop offset="0.8" stop-color="#D18800"/>
<stop offset="1" stop-color="#AF5400"/>
</linearGradient>
<linearGradient id="paint1_linear_2263_2041" x1="11" y1="10.5" x2="15" y2="10.5" gradientUnits="userSpaceOnUse">
<stop stop-color="#AF5400"/>
<stop offset="0.3" stop-color="#DDA337"/>
<stop offset="0.8" stop-color="#D18800"/>
<stop offset="1" stop-color="#AF5400"/>
</linearGradient>
<linearGradient id="paint2_linear_2263_2041" x1="1.99988" y1="13" x2="20" y2="13" gradientUnits="userSpaceOnUse">
<stop stop-color="#AF5400"/>
<stop offset="0.3" stop-color="#DDA337"/>
<stop offset="0.8" stop-color="#D18800"/>
<stop offset="1" stop-color="#AF5400"/>
</linearGradient>
</defs>
</svg>
