<svg width="198" height="64" viewBox="0 0 198 64" fill="none" xmlns="http://www.w3.org/2000/svg">
<path d="M67.32 51.2175C64.4077 51.2175 61.8151 50.6038 59.5421 49.3764C57.2691 48.1139 55.4755 46.3956 54.1614 44.2213C52.8473 42.0471 52.1903 39.5748 52.1903 36.8044C52.1903 33.9989 52.8473 31.5266 54.1614 29.3874C55.4755 27.2131 57.2691 25.5123 59.5421 24.2849C61.8151 23.0575 64.4077 22.4438 67.32 22.4438C70.2678 22.4438 72.8782 23.0575 75.1512 24.2849C77.4597 25.5123 79.2533 27.1956 80.5318 29.3348C81.8459 31.4739 82.503 33.9638 82.503 36.8044C82.503 39.5748 81.8459 42.0471 80.5318 44.2213C79.2533 46.3956 77.4597 48.1139 75.1512 49.3764C72.8782 50.6038 70.2678 51.2175 67.32 51.2175ZM67.32 45.589C68.9537 45.589 70.4099 45.2383 71.6884 44.537C72.967 43.8356 73.9614 42.8186 74.6717 41.486C75.4176 40.1534 75.7905 38.5928 75.7905 36.8044C75.7905 34.9808 75.4176 33.4202 74.6717 32.1227C73.9614 30.7901 72.967 29.7731 71.6884 29.0718C70.4099 28.3704 68.9715 28.0197 67.3733 28.0197C65.7395 28.0197 64.2834 28.3704 63.0048 29.0718C61.7618 29.7731 60.7673 30.7901 60.0215 32.1227C59.2757 33.4202 58.9028 34.9808 58.9028 36.8044C58.9028 38.5928 59.2757 40.1534 60.0215 41.486C60.7673 42.8186 61.7618 43.8356 63.0048 44.537C64.2834 45.2383 65.7218 45.589 67.32 45.589ZM92.0673 50.8493V11.8181H98.7265V50.8493H92.0673ZM128.19 50.8493V45.1682L127.817 43.9583V34.0164C127.817 32.0876 127.231 30.5972 126.059 29.5452C124.887 28.4581 123.111 27.9145 120.732 27.9145C119.133 27.9145 117.553 28.16 115.99 28.6509C114.463 29.1419 113.167 29.8257 112.101 30.7024L109.491 25.9156C111.018 24.7583 112.829 23.8992 114.925 23.3381C117.056 22.7419 119.258 22.4438 121.531 22.4438C125.651 22.4438 128.829 23.4257 131.067 25.3896C133.34 27.3183 134.476 30.3167 134.476 34.3846V50.8493H128.19ZM119.24 51.2175C117.109 51.2175 115.244 50.8668 113.646 50.1655C112.048 49.429 110.805 48.4296 109.917 47.1671C109.065 45.8696 108.639 44.4142 108.639 42.8011C108.639 41.223 109.011 39.8027 109.757 38.5402C110.539 37.2778 111.799 36.2783 113.54 35.5419C115.28 34.8055 117.588 34.4372 120.465 34.4372H128.723V38.8033H120.945C118.672 38.8033 117.145 39.1715 116.363 39.9079C115.582 40.6093 115.191 41.486 115.191 42.5381C115.191 43.7304 115.671 44.6772 116.63 45.3786C117.588 46.08 118.92 46.4307 120.625 46.4307C122.259 46.4307 123.715 46.0624 124.993 45.326C126.308 44.5896 127.249 43.5024 127.817 42.0646L128.936 46.0098C128.296 47.6581 127.142 48.9381 125.473 49.8498C123.839 50.7616 121.762 51.2175 119.24 51.2175ZM182.125 22.4438C184.398 22.4438 186.405 22.8822 188.145 23.7589C189.921 24.6356 191.306 25.9857 192.301 27.8093C193.295 29.5978 193.792 31.9123 193.792 34.7528V50.8493H187.133V35.5945C187.133 33.1046 186.583 31.246 185.482 30.0186C184.381 28.7912 182.8 28.1775 180.74 28.1775C179.284 28.1775 177.988 28.4931 176.851 29.1244C175.75 29.7556 174.88 30.6849 174.241 31.9123C173.637 33.1397 173.335 34.7002 173.335 36.5939V50.8493H166.676V35.5945C166.676 33.1046 166.126 31.246 165.025 30.0186C163.924 28.7912 162.343 28.1775 160.283 28.1775C158.827 28.1775 157.531 28.4931 156.394 29.1244C155.293 29.7556 154.423 30.6849 153.784 31.9123C153.18 33.1397 152.878 34.7002 152.878 36.5939V50.8493H146.219V22.7594H152.559V30.229L151.44 28.0197C152.399 26.1961 153.784 24.8109 155.595 23.8641C157.442 22.9172 159.537 22.4438 161.881 22.4438C164.545 22.4438 166.854 23.0926 168.807 24.3901C170.796 25.6876 172.11 27.6515 172.749 30.2816L170.139 29.3874C171.062 27.2833 172.589 25.6 174.72 24.3375C176.851 23.075 179.32 22.4438 182.125 22.4438Z" fill="url(#paint0_linear_2303_483)"/>
<path d="M16.3173 10.0822H32.4081L26.4148 14.0274L23.5637 16.2339C19.9998 18.9921 16.7518 22.1266 13.8776 25.5816L13.0964 26.5206L11.7629 28.1235C9.25623 31.1367 7.09963 34.4179 5.33352 37.9057L0.0841025 48.2722C0.0631522 48.3134 0 48.299 0 48.2525V26.7287C0 24.8489 0.306939 22.9812 0.909002 21.1977L0.943363 21.096C1.49503 19.4618 2.29798 17.9212 3.32405 16.5281L3.57577 16.1863C4.73202 14.6165 6.19194 13.2886 7.87117 12.2793C9.56184 11.2631 11.441 10.5904 13.3983 10.3005L13.4431 10.2939C14.3945 10.153 15.3553 10.0822 16.3173 10.0822Z" fill="url(#paint1_linear_2303_483)"/>
<path d="M6.43722 37.6986C4.54019 40.3781 1.02361 47.2842 0.18363 48.9495C0.159921 48.9968 0.222699 49.0398 0.255971 48.999C1.3057 47.7063 5.34991 42.7664 7.99103 40.1096C10.3113 37.7756 10.4282 37.595 12.9774 35.5069L13.0588 35.4403C16.5702 32.5639 16.6983 32.4589 20.8655 30.4658C23.0387 29.4263 29.3004 26.5206 29.3004 26.5206L35.0379 24.042C35.9447 23.6503 36.7975 23.1465 37.5758 22.5426L38.2201 22.0428C39.0715 21.3822 39.7744 20.5539 40.2839 19.6105C40.9406 18.3947 41.255 17.0273 41.1944 15.6507L41.0673 12.7648C41.0661 12.7374 41.0435 12.7172 41.0165 12.7234C40.8032 12.7727 39.9058 12.9858 38.7288 13.3428C34.2877 14.6898 30.1981 17.0594 26.2202 19.4292C25.2289 20.0198 24.1604 20.6915 22.9663 21.4795C19.0319 24.0758 15.6472 26.95 12.9774 29.589C10.3161 32.2198 8.61247 34.6262 6.45773 37.6697L6.43722 37.6986Z" fill="url(#paint2_linear_2303_483)"/>
<path d="M8.5406 42.3958L0.887713 50.8243C0.853129 50.8625 0.901382 50.9181 0.944884 50.8901L6.47732 47.356C9.90711 45.1651 13.6213 43.4427 17.5189 42.2354L22.9663 40.5479L29.3338 39.2787C32.3834 38.6708 35.2643 37.4209 37.7803 35.6141C38.4833 35.1092 39.078 34.4718 39.53 33.7386L40.1399 32.7493C41.3257 30.8257 41.9529 28.6171 41.9529 26.3651V22.6842C41.9529 22.6447 41.9042 22.6253 41.8765 22.6538C38.2927 26.334 33.7804 29.0045 28.804 30.3905L27.7467 30.6849L26.354 31.1117C23.0057 32.1377 19.8096 33.5967 16.8488 35.4506C13.7699 37.3784 10.9743 39.7155 8.5406 42.3958Z" fill="url(#paint3_linear_2303_483)"/>
<path d="M4.2809 50.727L3.85542 51.0132C3.83056 51.0299 3.84256 51.0685 3.87264 51.0685H32.0454C33.7324 51.0685 35.3849 50.5964 36.8112 49.7069C38.1435 48.8758 39.2293 47.7115 39.9581 46.3325L40.1978 45.8788C41.0575 44.2516 41.4794 42.434 41.4231 40.5997L41.287 36.1644C39.4462 38.9608 36.5137 40.8786 33.1879 41.4612L24.639 42.9589C17.3383 43.968 10.3718 46.6262 4.2809 50.727Z" fill="url(#paint4_linear_2303_483)"/>
<path d="M91.8969 7.6712H98.778V16.6575L91.8969 11.8356V7.6712Z" fill="white"/>
<defs>
<linearGradient id="paint0_linear_2303_483" x1="124.083" y1="-2.76566e-05" x2="124.083" y2="64" gradientUnits="userSpaceOnUse">
<stop stop-color="#5C3A00"/>
<stop offset="0.2" stop-color="#C99700" stop-opacity="0.870588"/>
<stop offset="0.4" stop-color="#FFD75A"/>
<stop offset="0.5" stop-color="#C99700"/>
<stop offset="0.65" stop-color="#C99700"/>
<stop offset="1" stop-color="#7A4E00"/>
</linearGradient>
<linearGradient id="paint1_linear_2303_483" x1="20.9765" y1="10.0822" x2="20.9765" y2="51.0685" gradientUnits="userSpaceOnUse">
<stop stop-color="#5C3A00"/>
<stop offset="0.2" stop-color="#C99700" stop-opacity="0.870588"/>
<stop offset="0.4" stop-color="#FFD75A"/>
<stop offset="0.5" stop-color="#C99700"/>
<stop offset="0.65" stop-color="#C99700"/>
<stop offset="1" stop-color="#7A4E00"/>
</linearGradient>
<linearGradient id="paint2_linear_2303_483" x1="20.9765" y1="10.0822" x2="20.9765" y2="51.0685" gradientUnits="userSpaceOnUse">
<stop stop-color="#5C3A00"/>
<stop offset="0.2" stop-color="#C99700" stop-opacity="0.870588"/>
<stop offset="0.4" stop-color="#FFD75A"/>
<stop offset="0.5" stop-color="#C99700"/>
<stop offset="0.65" stop-color="#C99700"/>
<stop offset="1" stop-color="#7A4E00"/>
</linearGradient>
<linearGradient id="paint3_linear_2303_483" x1="20.9765" y1="10.0822" x2="20.9765" y2="51.0685" gradientUnits="userSpaceOnUse">
<stop stop-color="#5C3A00"/>
<stop offset="0.2" stop-color="#C99700" stop-opacity="0.870588"/>
<stop offset="0.4" stop-color="#FFD75A"/>
<stop offset="0.5" stop-color="#C99700"/>
<stop offset="0.65" stop-color="#C99700"/>
<stop offset="1" stop-color="#7A4E00"/>
</linearGradient>
<linearGradient id="paint4_linear_2303_483" x1="20.9764" y1="10.0822" x2="20.9764" y2="51.0685" gradientUnits="userSpaceOnUse">
<stop stop-color="#5C3A00"/>
<stop offset="0.2" stop-color="#C99700" stop-opacity="0.870588"/>
<stop offset="0.4" stop-color="#FFD75A"/>
<stop offset="0.5" stop-color="#C99700"/>
<stop offset="0.65" stop-color="#C99700"/>
<stop offset="1" stop-color="#7A4E00"/>
</linearGradient>
</defs>
</svg>
